<?xml version="1.0" standalone="no"?>
<!DOCTYPE svg PUBLIC "-//W3C//DTD SVG 20010904//EN"
 "http://www.w3.org/TR/2001/REC-SVG-20010904/DTD/svg10.dtd">
<svg version="1.0" xmlns="http://www.w3.org/2000/svg"
 width="1024.000000pt" height="1024.000000pt" viewBox="0 0 1024.000000 1024.000000"
 preserveAspectRatio="xMidYMid meet">

<g transform="translate(0.000000,1024.000000) scale(0.100000,-0.100000)"
fill="#d35400" stroke="none">
<path d="M4830 9053 c-364 -27 -782 -120 -1123 -249 -151 -58 -441 -197 -619
-297 -317 -179 -600 -398 -883 -681 -486 -487 -840 -1073 -1011 -1670 -102
-356 -154 -827 -140 -1271 6 -229 17 -338 52 -548 53 -319 138 -597 278 -912
277 -620 775 -1217 1348 -1615 224 -156 543 -330 803 -438 815 -340 1764 -401
2670 -170 692 176 1329 548 1857 1084 735 747 1117 1675 1118 2714 0 804 -169
1434 -557 2075 -196 324 -465 650 -738 894 -246 220 -388 325 -665 492 -561
337 -1130 529 -1739 585 -139 12 -522 17 -651 7z m1442 -1310 c32 -12 80 -36
107 -55 42 -28 590 -544 955 -898 135 -131 187 -203 219 -305 l22 -70 0 -1355
0 -1355 -23 -105 c-72 -326 -208 -578 -436 -805 -232 -231 -466 -355 -791
-417 l-120 -23 -1100 0 -1100 0 -113 23 c-536 109 -982 512 -1162 1049 -74
222 -71 153 -67 1693 4 1529 -3 1393 73 1621 133 399 486 756 909 919 98 37
301 89 392 100 38 4 543 7 1123 6 l1055 -1 57 -22z"/>
<path d="M5976 7632 c-3 -5 -4 -281 -3 -613 l2 -604 729 -3 728 -2 -7 27 c-25
103 -128 234 -226 288 -95 51 -126 55 -495 55 l-341 0 -6 167 c-4 91 -7 241
-7 332 0 187 -6 220 -52 275 -50 61 -115 86 -225 86 -50 0 -94 -4 -97 -8z"/>
<path d="M4728 7268 c-46 -12 -117 -72 -134 -115 -21 -49 -17 -129 7 -180 13
-27 47 -66 89 -101 38 -31 69 -60 69 -64 1 -5 -192 -8 -427 -8 -255 0 -452 -4
-488 -11 -221 -39 -445 -175 -579 -352 -69 -92 -137 -236 -166 -352 l-22 -90
-1 -951 -1 -950 30 -60 c49 -96 144 -146 245 -129 58 10 130 62 160 115 l25
45 5 925 c6 922 6 925 28 992 49 147 163 260 312 310 62 21 86 22 480 25 l415
3 -30 -25 c-16 -15 -51 -44 -78 -66 -110 -93 -122 -233 -26 -328 43 -43 86
-61 146 -61 69 1 115 27 228 130 55 50 196 177 313 282 117 104 219 202 226
217 50 96 21 160 -137 299 -62 55 -211 188 -331 296 -246 221 -261 230 -358
204z"/>
<path d="M6835 6081 c-55 -25 -92 -63 -118 -119 l-22 -47 -5 -920 -5 -920 -23
-65 c-62 -171 -194 -305 -352 -356 -48 -15 -104 -18 -420 -22 -201 -2 -385 0
-410 3 l-45 7 25 17 c149 98 187 237 96 355 -32 43 -118 86 -170 86 -78 0 -89
-8 -457 -336 -296 -264 -319 -291 -319 -370 0 -55 24 -97 81 -147 30 -25 173
-147 319 -272 146 -125 283 -235 305 -246 97 -45 213 1 261 105 28 61 30 117
5 171 -19 42 -94 118 -136 137 -14 6 -25 14 -25 17 0 3 201 6 447 6 l448 0 96
26 c107 30 254 100 344 164 178 127 309 321 372 550 l28 100 0 960 0 960 -22
40 c-62 116 -190 166 -298 116z"/>
<path d="M5664 6041 c-45 -28 -72 -67 -80 -117 -9 -63 26 -131 82 -160 40 -20
54 -21 314 -17 304 3 310 5 349 73 12 21 21 53 21 72 0 47 -39 119 -79 145
-33 22 -40 23 -305 23 -248 0 -274 -2 -302 -19z"/>
<path d="M4025 5764 c-130 -48 -168 -215 -69 -305 16 -15 219 -153 452 -308
232 -155 422 -284 422 -286 0 -3 -190 -131 -422 -286 -233 -154 -434 -290
-446 -302 -97 -89 -75 -250 40 -306 55 -26 100 -26 158 0 82 37 1170 770 1184
798 37 71 26 150 -27 206 -18 18 -232 167 -477 330 -245 164 -493 331 -552
372 -154 106 -183 116 -263 87z"/>
<path d="M5218 5561 c-81 -26 -123 -91 -116 -180 5 -74 30 -108 118 -163 197
-123 550 -352 550 -357 0 -3 -136 -92 -303 -198 -185 -117 -313 -205 -331
-226 -37 -46 -45 -110 -21 -172 19 -52 62 -88 122 -104 37 -10 48 -9 85 10 52
26 807 494 928 575 88 59 95 175 16 234 -12 8 -95 60 -186 116 -91 55 -299
182 -463 283 -306 188 -336 202 -399 182z"/>
</g>
</svg>
